<svg width="26" height="25" viewBox="0 0 26 25" fill="none" xmlns="http://www.w3.org/2000/svg">
	<path
		d="M8.89474 0V24M17.1053 1V24M25.3158 1V25M0.684211 0V25M24.6316 24.5H0M24.6316 16.5H0M24.6316 8.5H0M26 0.5H0"
		stroke="black" />
	<path
		d="M12.4205 12.6364C12.4205 13.5568 12.2543 14.3523 11.9219 15.0227C11.5895 15.6932 11.1335 16.2102 10.554 16.5739C9.97443 16.9375 9.3125 17.1193 8.56818 17.1193C7.82386 17.1193 7.16193 16.9375 6.58239 16.5739C6.00284 16.2102 5.54688 15.6932 5.21449 15.0227C4.8821 14.3523 4.71591 13.5568 4.71591 12.6364C4.71591 11.7159 4.8821 10.9205 5.21449 10.25C5.54688 9.57955 6.00284 9.0625 6.58239 8.69886C7.16193 8.33523 7.82386 8.15341 8.56818 8.15341C9.3125 8.15341 9.97443 8.33523 10.554 8.69886C11.1335 9.0625 11.5895 9.57955 11.9219 10.25C12.2543 10.9205 12.4205 11.7159 12.4205 12.6364ZM11.3977 12.6364C11.3977 11.8807 11.2713 11.2429 11.0185 10.723C10.7685 10.2031 10.429 9.80966 10 9.54261C9.57386 9.27557 9.09659 9.14205 8.56818 9.14205C8.03977 9.14205 7.56108 9.27557 7.1321 9.54261C6.70597 9.80966 6.36648 10.2031 6.11364 10.723C5.86364 11.2429 5.73864 11.8807 5.73864 12.6364C5.73864 13.392 5.86364 14.0298 6.11364 14.5497C6.36648 15.0696 6.70597 15.4631 7.1321 15.7301C7.56108 15.9972 8.03977 16.1307 8.56818 16.1307C9.09659 16.1307 9.57386 15.9972 10 15.7301C10.429 15.4631 10.7685 15.0696 11.0185 14.5497C11.2713 14.0298 11.3977 13.392 11.3977 12.6364ZM21.1179 8.27273V17H20.0952L15.3395 10.1477H15.2543V17H14.1974V8.27273H15.2202L19.9929 15.142H20.0781V8.27273H21.1179Z"
		fill="white" />
</svg>
	